<svg width="36" height="36" fill="none" xmlns="http://www.w3.org/2000/svg"><path d="M32.977 7.805L15.89 24.89l-6.399-6.328 2.18-2.11 4.219 4.219L30.867 5.695l2.11 2.11zm-3.305 7.523c.21.844.351 1.758.351 2.672 0 6.61-5.414 12.023-12.023 12.023-6.61 0-12.023-5.414-12.023-12.023C5.977 11.39 11.39 5.977 18 5.977c2.39 0 4.57.703 6.398 1.898l2.18-2.18A15.12 15.12 0 0018 3.023 14.944 14.944 0 003.023 18c0 8.297 6.68 14.977 14.977 14.977S32.977 26.297 32.977 18c0-1.758-.282-3.516-.844-5.063l-2.461 2.391z" fill="#0D2367"/></svg>