<svg width="14" height="14" fill="none" xmlns="http://www.w3.org/2000/svg"><path d="M11.293 5.852C10.883 3.855 9.133 2.324 7 2.324c-1.695 0-3.145.957-3.883 2.38C1.367 4.866 0 6.37 0 8.175c0 1.914 1.559 3.5 3.5 3.5h7.574A2.93 2.93 0 0014 8.75c0-1.531-1.203-2.79-2.707-2.898zm-.219 4.648H3.5a2.322 2.322 0 01-2.324-2.324c0-1.203.875-2.215 2.078-2.324l.601-.055.301-.574A3.178 3.178 0 017 3.5a3.218 3.218 0 013.145 2.598l.164.875.902.054c.902.055 1.613.82 1.613 1.723 0 .957-.765 1.75-1.75 1.75zM7.848 5.824H6.152v1.75H4.676L7 9.926l2.324-2.352H7.848v-1.75z" fill="#086A6A"/></svg>